<?xml version="1.0" encoding="UTF-8"?><svg xmlns="http://www.w3.org/2000/svg" viewBox="0 0 1489 931"><defs><style>.cls-1{fill:#93715f;}.cls-1,.cls-2,.cls-3,.cls-4,.cls-5,.cls-6,.cls-7,.cls-8{stroke-width:0px;}.cls-2{fill:#c09a8a;}.cls-3{fill:#aa7c6a;}.cls-4{fill:#9b7765;}.cls-5{fill:#864c39;}.cls-9{fill:none;stroke:#7c5542;stroke-miterlimit:10;stroke-width:20px;}.cls-6{fill:#9e6b54;}.cls-7{fill:#91624d;}.cls-8{fill:#7c5542;}</style></defs><g id="Lag_9"><path class="cls-8" d="M390.89,89.98c-18.1.44-36.22.4-54.32-.13-5.15-.15-10.29-.34-15.44-.57l.76,2.8c9.88-5.5,21.87-3.92,32.66-3.12,12.71.94,25.42,1.88,38.14,2.82,7.26.54,14.53,1.07,21.79,1.61v-3c-24.86.76-49.71,1.52-74.57,2.28-3.02.09-6.12.4-9.14.2-1.76-.11-4.24-.51-4.65-2.54l-1.45,1.9c19.98-1.81,40.02-2.94,60.07-3.37,5.64-.12,11.27-.19,16.91-.2,1.94,0,1.92-2.9,0-3-21.28-1.14-42.57-2.28-63.85-3.41-2.98-.16-5.96-.31-8.94-.48-1.53-.09-4.21-.21-4.64-2.04l-1.45,1.9c29.87-1.75,59.79-2.79,89.71-3.1,8.48-.09,16.96-.12,25.43-.09l-.76-2.8c-15.63,9.32-34.74,6.96-52.03,5.55-9.83-.8-19.65-1.17-29.5-.61s-20.36,1.99-30.32,4.23c-5.52,1.24-11.1,3-16.83,2.64-4.31-.27-8.85-2.04-11.31-5.77l-.9,2.2c16.76-2.79,34.02-2.24,50.57,1.57v-2.89c-16.28,6.23-34.25,7.39-51.17,3.2l.36,2.74c9.92-7.54,23.39-9.44,35-4.9l-.36-2.74c-7.87,4.29-17.13,5.69-25.91,3.88l.36,2.74c6.01-3.9,13.39-5.24,20.37-3.6v-2.89c-4.67,1.51-9.5,1.94-14.37,1.32l.76,2.8c8.11-3.91,17.9-4,26.08-.22v-2.59c-12.48,6.54-27.47,7.66-40.88,3.46-3.84-1.2-7.5-2.85-10.95-4.91l-.76,2.8c9.49-1.2,19.05-.86,28.58-.4s19.38.94,29.07,1.41c19.4.94,38.8,1.88,58.2,2.82,10.94.53,21.89,1.06,32.83,1.59v-3c-20.9-.62-41.8-1.24-62.69-1.86-5.97-.18-11.94-.35-17.91-.53l.4,2.95c21.11-4.75,42.73-7.11,64.37-7,6.13.03,12.25.26,18.36.68l-.76-2.8c-7.28,5.11-16.07,7.21-24.78,8.31-9.93,1.25-19.99,1.75-29.99,1.87-5.88.07-11.75-.04-17.62-.31l.76,2.8c13.25-8.2,29.59-10.86,44.75-7.23l-.36-2.74c-9.46,6.27-21.95,7.56-32.42,3.06l-.36,2.74c10.71-4.17,22.23-5.72,33.66-4.53v-3c-10.62,1.08-21.3,1.39-31.97.93-1.65-.07-2.09,2.7-.4,2.95l28.68,4.18-.36-2.74c-6.71,2.91-14.34,3.23-21.31,1.06l.9,2.2c2.64-4.85,9.24-6.88,14.12-4.21l.36-2.74c-16.1,5.83-33.15,8.85-50.28,8.87-4.82,0-9.63-.24-14.42-.7l.4,2.95c13.27-3.6,27.33-3.65,40.63-.14v-2.89c-15.45,5.33-32.74,4.82-47.79-1.62l.69.9c-.32-1.89,3.38-2.57,4.62-2.7,3.33-.35,6.73-.41,10.07-.55,6.92-.29,13.86-.41,20.79-.35,13.94.12,27.88.94,41.74,2.47,7.81.86,15.59,1.95,23.34,3.26l-.36-2.74c-6.08,4.59-15.26,3.44-20-2.53-1.2-1.51-3.31.62-2.12,2.12,5.49,6.91,16.59,8.33,23.64,3,.9-.68,1.06-2.5-.36-2.74-22.32-3.77-44.94-5.75-67.58-5.84-5.71-.02-11.42.07-17.12.28-2.77.1-5.54.23-8.31.39-2.26.13-4.62.11-6.79.85-1.66.56-3.39,1.49-4.17,3.14-.36.75-.5,1.63-.33,2.45.27,1.3,1.6,1.56,2.71,2.01,4.72,1.89,9.65,3.23,14.68,4,11.19,1.73,22.74.8,33.46-2.9,1.35-.46,1.5-2.5,0-2.89-13.81-3.64-28.44-3.6-42.22.14-1.72.47-1.22,2.79.4,2.95,17.22,1.66,34.71.31,51.47-3.96,4.74-1.21,9.42-2.65,14.02-4.32,1.15-.42,1.56-2.08.36-2.74-6.27-3.43-14.79-1.02-18.22,5.28-.47.87-.05,1.91.9,2.2,7.79,2.43,16.15,1.88,23.62-1.36,1.13-.49.88-2.56-.36-2.74l-28.68-4.18-.4,2.95c10.66.46,21.35.15,31.97-.93,1.93-.2,1.93-2.8,0-3-11.65-1.22-23.54.38-34.45,4.64-1.04.4-1.68,2.18-.36,2.74,11.45,4.92,25.03,3.85,35.45-3.06,1.02-.68.96-2.43-.36-2.74-15.93-3.81-33.13-1.08-47.06,7.54-1.29.8-.72,2.73.76,2.8,10.67.49,21.36.44,32.02-.19,9.41-.56,19.08-1.19,28.19-3.77,4.86-1.38,9.55-3.4,13.69-6.31,1.23-.86.77-2.69-.76-2.8-21.78-1.49-43.69-.5-65.25,2.91-6.13.97-12.23,2.15-18.28,3.51-1.69.38-1.25,2.9.4,2.95,20.9.62,41.8,1.24,62.69,1.86,5.97.18,11.94.35,17.91.53,1.94.06,1.92-2.91,0-3-19.4-.94-38.8-1.88-58.2-2.82s-38.8-1.88-58.2-2.82c-10.75-.52-21.56-1.13-32.28.22-1.39.18-2.15,1.97-.76,2.8,12.84,7.65,28.68,9.73,43.13,5.99,4.07-1.05,8.01-2.59,11.73-4.54.94-.49,1.02-2.12,0-2.59-9.23-4.27-19.95-4.19-29.11.22-1.5.72-.54,2.63.76,2.8,5.1.65,10.27.15,15.16-1.43,1.34-.43,1.51-2.54,0-2.89-7.74-1.82-16.01-.43-22.68,3.9-1.01.65-.98,2.47.36,2.74,9.59,1.98,19.62.51,28.22-4.18,1.23-.67.77-2.3-.36-2.74-12.25-4.79-26.84-2.77-37.31,5.2-.95.73-1.01,2.4.36,2.74,17.41,4.31,36.01,3.21,52.77-3.2,1.27-.49,1.57-2.53,0-2.89-17.11-3.93-34.85-4.45-52.17-1.57-.94.16-1.39,1.45-.9,2.2,5.28,8.02,15.65,8.01,24.05,6.24,5.24-1.11,10.42-2.44,15.71-3.38s10.49-1.62,15.78-2.08c10.4-.9,20.83-.86,31.23-.08,9.33.7,18.66,1.75,28.03,1.59,10.19-.18,20.43-1.97,29.29-7.24,1.28-.76.74-2.79-.76-2.8-29.92-.09-59.85.53-89.74,1.87-8.47.38-16.94.82-25.4,1.32-.99.06-1.68.91-1.45,1.9,1.03,4.41,6.76,4.21,10.26,4.39,5.63.3,11.26.6,16.89.9,11.35.61,22.69,1.21,34.04,1.82,6.38.34,12.75.68,19.13,1.02v-3c-20.06.05-40.12.78-60.13,2.2-5.62.4-11.24.86-16.85,1.37-1.01.09-1.65.88-1.45,1.9.95,4.65,6.72,4.85,10.48,4.73,6.55-.2,13.09-.4,19.64-.6,13.01-.4,26.02-.79,39.03-1.19,7.37-.23,14.75-.45,22.12-.68,1.95-.06,1.91-2.86,0-3-13.04-.96-26.08-1.93-39.13-2.89-6.44-.48-12.88-.95-19.32-1.43-5.87-.43-11.77-1.02-17.67-.88-6.24.15-12.48,1.23-17.99,4.3-1.35.75-.68,2.73.76,2.8,18.09.81,36.2,1.13,54.31.96,5.15-.05,10.3-.14,15.45-.26,1.93-.05,1.93-3.05,0-3h0Z"/><path class="cls-8" d="M494.73,91.13c30.06,7.5,61.1,5.14,91.74,4.99,8.57-.04,17.15.12,25.7.74,2.2.16,4.85-1.12,6.36-2.64s2.74-4.12,2.64-6.36c-.23-5.17-3.96-8.64-9-9-25.54-1.85-51.13.5-76.68-.44-7.08-.26-14.15-.78-21.18-1.71l2.39.32c-5.78-.78-11.52-1.84-17.18-3.25-4.56-1.14-9.97,1.47-11.07,6.29s1.4,9.85,6.29,11.07h0Z"/><path class="cls-8" d="M682.38,80.49h-2.13c-1.24-.05-2.39.21-3.47.78-1.12.36-2.08.98-2.9,1.86-.88.82-1.5,1.78-1.86,2.9-.56,1.07-.82,2.23-.78,3.47l.32,2.39c.43,1.52,1.2,2.85,2.31,3.97l1.82,1.41c1.4.81,2.92,1.22,4.54,1.23h2.13c1.24.05,2.39-.21,3.47-.78,1.12-.36,2.08-.98,2.9-1.86.88-.82,1.5-1.78,1.86-2.9.56-1.07.82-2.23.78-3.47l-.32-2.39c-.43-1.52-1.2-2.85-2.31-3.97l-1.82-1.41c-1.4-.81-2.92-1.22-4.54-1.23h0Z"/><path class="cls-8" d="M620.68,94.23c4.71,0,9.22-4.14,9-9s-3.95-9-9-9c-4.71,0-9.22,4.14-9,9s3.95,9,9,9h0Z"/><path class="cls-8" d="M678,90.61c11.36,2.73,22.72,5.46,34.08,8.18,5.71,1.37,11.41,2.75,17.12,4.11s11.78,2.75,17.68,2.19c4.39-.42,8.11-1.46,12.08-3.41,2.54-1.25,4.93-2.8,7.53-3.92l-2.15.91c1.68-.69,3.4-1.13,5.2-1.38l-2.39.32c5.76-.72,11.74-.32,17.54-.32s11.96-.01,17.94-.02c3.17,0,6.17-1.72,7.77-4.46.81-1.4,1.22-2.92,1.23-4.54,0-1.62-.41-3.14-1.23-4.54-1.34-3.11-3.96-5.46-6.66-7.37-2.31-1.63-5.11-2.68-7.79-3.51-5.75-1.78-11.86-2.64-17.83-3.34-11.96-1.41-24.11-.71-35.91,1.64-6.32,1.26-12.52,3.09-18.92,3.95l2.39-.32c-3.4.43-6.81.57-10.22.18l2.39,17.68c1.21-.32,2.43-.57,3.66-.75l-2.39.32c2.64-.34,5.28-.35,7.93-.02,2.12.27,4.93-1.2,6.36-2.64,1.56-1.56,2.74-4.12,2.64-6.36s-.87-4.74-2.64-6.36l-1.82-1.41c-1.4-.81-2.92-1.22-4.54-1.23-4.65-.59-9.46-.1-13.98,1.09s-7.03,5.54-6.45,9.87c.25,1.89,1.03,3.84,2.48,5.17l1.82,1.41c1.4.81,2.92,1.22,4.54,1.23,6.68.75,13.5-.42,20.01-1.85,6-1.32,11.93-2.85,18.02-3.69l-2.39.32c9.51-1.27,19.14-1.27,28.65-.03l-2.39-.32c5.46.74,11.22,1.61,16.34,3.74l-2.15-.91c1.3.56,2.52,1.23,3.65,2.09l-1.82-1.41c.62.51,1.17,1.05,1.68,1.67l-1.41-1.82c.49.65.88,1.31,1.2,2.06,2.59-4.51,5.18-9.03,7.77-13.54-9.09,0-18.19.02-27.28.02-4.85,0-9.97-.04-14.61,1.57s-8.17,4.16-12.41,5.99l2.15-.91c-1.65.67-3.34,1.12-5.11,1.38l2.39-.32c-2.7.33-5.4.21-8.09-.14l2.39.32c-4.84-.69-9.58-1.98-14.33-3.12l-14.99-3.6c-9.99-2.4-19.98-4.8-29.97-7.2-2.32-.56-4.85-.31-6.94.91-1.87,1.09-3.65,3.23-4.14,5.38-1.05,4.63,1.39,9.9,6.29,11.07h0Z"/><path class="cls-8" d="M812.17,84.66c4.71,0,9.22-4.14,9-9s-3.95-9-9-9c-4.71,0-9.22,4.14-9,9s3.95,9,9,9h0Z"/><path class="cls-8" d="M867.52,95.53c19.96-.99,39.89.83,59.78,2.29s39.72,2.56,59.46.06c3.29-.42,6.64-.78,9.89-1.46,5.18-1.08,9.38-5.82,9.2-11.23-.15-4.42-2.56-8.78-6.52-10.9-4.22-2.27-9.05-1.86-13.42-.31-2.24.8-4.15,2.04-5.38,4.14-1.13,1.93-1.61,4.77-.91,6.94,1.41,4.36,6.32,7.98,11.07,6.29,1.17-.42,2.33-.79,3.56-.97l-2.39.32c.61-.05,1.18-.05,1.79.02l-2.39-.32c.3.05.59.13.87.23l-2.15-.91c.28.12.52.25.77.41l-1.82-1.41c.32.25.58.52.83.83l-1.41-1.82c.17.25.31.49.44.76l-.91-2.15c.11.28.19.53.25.82l-.32-2.39c.04.28.04.53.03.82l.32-2.39c-.02.18-.06.35-.12.52l.91-2.15c-.06.17-.14.33-.24.47l1.41-1.82c-.11.15-.23.29-.37.41l1.82-1.41c-.2.17-.43.31-.68.41l2.15-.91c-2.38.89-5.2,1.01-7.71,1.35l2.39-.32c-31.22,4.1-62.58-.8-93.8-2.17-8.79-.39-17.6-.49-26.39-.05-2.38.12-4.65.92-6.36,2.64-1.56,1.56-2.74,4.12-2.64,6.36.21,4.68,3.96,9.25,9,9h0Z"/><path class="cls-8" d="M1067.45,93.48c16.52,1.87,33.11,3.18,49.72,3.93,16.61.74,33.25.92,49.87.53,9.38-.22,18.76-.62,28.13-1.2,2.39-.15,4.63-.9,6.36-2.64,1.56-1.56,2.74-4.12,2.64-6.36-.21-4.63-3.97-9.31-9-9-16.6,1.03-33.23,1.49-49.86,1.39-16.63-.1-33.25-.77-49.83-2.01-9.36-.7-18.7-1.58-28.03-2.63-2.14-.24-4.91,1.18-6.36,2.64-1.56,1.56-2.74,4.12-2.64,6.36s.87,4.74,2.64,6.36l1.82,1.41c1.4.81,2.92,1.22,4.54,1.23h0Z"/><path class="cls-8" d="M1421.06,266.56c.53,1.08,1.03,2.17,1.5,3.28l-.91-2.15c1.9,4.6,3.2,9.4,3.89,14.33l-.32-2.39c.48,3.67.81,7.58.34,11.27l.32-2.39c-.14.85-.35,1.67-.67,2.47.3-.72.6-1.43.91-2.15-.25.57-.53,1.09-.89,1.59.47-.61.94-1.21,1.41-1.82-.24.29-.49.54-.78.78l1.82-1.41c-.22.15-.43.27-.68.38l2.15-.91c-.16.06-.33.11-.5.14l2.39-.32c-.28.04-.52.04-.81.02l2.39.32c-.31-.05-.56-.13-.85-.24l2.15.91c-.17-.08-.34-.18-.49-.29l1.82,1.41c-.23-.19-.41-.37-.6-.6.47.61.94,1.21,1.41,1.82-.24-.33-.42-.67-.59-1.04l.91,2.15c-.28-.71-.44-1.43-.54-2.19l.32,2.39c-.39-3.4-.23-6.92-.3-10.34-.08-3.74-.16-7.48-.24-11.23-.1-4.7-4.07-9.22-9-9s-9.11,3.96-9,9c.12,5.57.23,11.14.35,16.71.06,2.84.01,5.77.75,8.53,1.13,4.27,4.21,7.97,8.54,9.23,7.74,2.25,14.55-3.9,15.92-11.22,1.11-5.95.43-12.24-.56-18.15-1.05-6.27-3.22-12.28-6.03-17.98-.96-1.94-3.35-3.58-5.38-4.14-2.15-.59-5.02-.33-6.94.91s-3.61,3.08-4.14,5.38c-.56,2.46-.21,4.67.91,6.94h0Z"/><path class="cls-8" d="M1422.13,314.07c-2.06,16.85-4.31,33.69-6.08,50.57-.51,4.86-.94,9.73-1.25,14.61,5.59-1.51,11.18-3.03,16.77-4.54-1.5-2.54-2.83-5.16-4-7.88.3.72.6,1.43.91,2.15-2.23-5.31-3.77-10.86-4.58-16.56l.32,2.39c-.27-2-.44-3.99-.21-6l-.32,2.39c.14-.99.38-1.91.76-2.83-.3.72-.6,1.43-.91,2.15.27-.57.56-1.09.94-1.59l-1.41,1.82c.37-.44.77-.83,1.21-1.19l-1.82,1.41c.46-.34.94-.62,1.46-.86l-2.15.91c.52-.21,1.03-.36,1.58-.45l-2.39.32c.43-.05.85-.05,1.28-.01l-2.39-.32c.43.07.82.18,1.23.34l-2.15-.91c.32.16.6.33.89.54-.61-.47-1.21-.94-1.82-1.41.4.34.74.7,1.07,1.11-.47-.61-.94-1.21-1.41-1.82.55.78.96,1.6,1.33,2.47-.3-.72-.6-1.43-.91-2.15.56,1.42.91,2.87,1.13,4.38l-.32-2.39c.57,4.52-.04,9.06.06,13.59.11,4.8,1.04,9.61,2.45,14.19,2.46,8,6.31,15.63,7.51,23.98l-.32-2.39c.34,2.58.4,5.15.07,7.74l.32-2.39c-.04.26-.07.52-.12.78-.39,2.47-.4,4.69.91,6.94,1.09,1.87,3.23,3.65,5.38,4.14,2.3.52,4.89.41,6.94-.91,1.84-1.19,3.78-3.12,4.14-5.38.39-2.47.73-4.94.66-7.45-.06-2.34-.4-4.7-.79-7-.59-3.44-1.63-6.79-2.79-10.08-2.38-6.75-5.31-13.39-6.34-20.53l.32,2.39c-.69-5.18.11-10.36-.19-15.55-.45-7.78-3.36-17.15-11.83-19.47-8.37-2.29-16.93,3.89-18.75,12.06-.9,4.05-.55,7.78.02,11.82.37,2.63.88,5.23,1.57,7.79,1.74,6.56,4.46,12.96,7.91,18.8,1.96,3.3,6.39,5.36,10.16,4.14s6.35-4.56,6.61-8.68c1.05-16.94,3.49-33.8,5.55-50.64.59-4.85,1.18-9.7,1.77-14.54.26-2.13-1.19-4.92-2.64-6.36-1.56-1.56-4.12-2.74-6.36-2.64s-4.74.87-6.36,2.64c-.47.61-.94,1.21-1.41,1.82-.81,1.4-1.22,2.92-1.23,4.54h0Z"/><path class="cls-8" d="M1425.83,432.29l.07.44-.32-2.39c.21,1.63.17,3.24-.05,4.86l.32-2.39c-.86,5.56-3.49,10.65-4.98,16.05-1.65,5.98-2.48,12.23-2.89,18.41-.74,11.15.19,22.33.36,33.48.1,6.42-.06,12.85-.9,19.22l.32-2.39c-.04.3-.08.6-.13.9,4.41-1.79,8.81-3.59,13.22-5.38-.48-.21-.91-.45-1.33-.76l1.82,1.41c-.39-.31-.73-.65-1.05-1.04.47.61.94,1.21,1.41,1.82-.44-.57-.78-1.17-1.07-1.82.3.72.6,1.43.91,2.15-.5-1.21-.78-2.47-.96-3.77l.32,2.39c-.56-4.56-.2-9.28-.19-13.86.02-5.28.03-10.56.05-15.84.02-5.13.29-10.34.02-15.47-.21-4.04-1.32-8.03-4.36-10.89-1.64-1.54-3.63-2.67-5.82-3.2-3.1-.75-5.73-.1-8.56,1.16-1.93.86-3.6,3.44-4.14,5.38-.59,2.15-.33,5.02.91,6.94s3.08,3.61,5.38,4.14l2.39.32c1.62,0,3.14-.41,4.54-1.23l.31-.14-2.15.91c.21-.08.43-.12.65-.14l-2.39.32c.22-.02.44,0,.66.03l-2.39-.32c.22.04.44.09.65.17l-2.15-.91c.33.14.61.3.92.5l-1.82-1.41c.29.23.53.45.77.72l-1.41-1.82c.31.41.53.82.73,1.29l-.91-2.15c.17.51.3,1,.39,1.53-.11-.8-.21-1.6-.32-2.39.24,1.91.13,3.86.13,5.78,0,2.06-.01,4.12-.02,6.19-.01,4.29-.03,8.58-.04,12.87s-.03,8.41-.04,12.62c-.01,4.1-.06,8.07.65,12.13.84,4.76,3.85,9.94,8.43,11.94,1.4.81,2.92,1.22,4.54,1.23,1.24.05,2.39-.21,3.47-.78,2.31-.97,4.83-3.16,5.21-5.83,1.21-8.49,1.51-16.94,1.29-25.51-.2-7.82-.66-15.63-.56-23.45.06-4.46.3-8.91.88-13.33l-.32,2.39c.75-5.5,2.1-10.79,4.02-15.99.95-2.57,1.93-5.14,2.54-7.81.95-4.15,1.01-7.9.35-12.07-.33-2.09-2.39-4.36-4.14-5.38-1.93-1.13-4.77-1.61-6.94-.91s-4.28,2.05-5.38,4.14c-1.2,2.27-1.31,4.41-.91,6.94h0Z"/><path class="cls-8" d="M1427.8,532.8c-8.04,19.59-7.89,41.37-7.62,62.19.04,2.87.08,5.73.09,8.6.02,2.8.26,5.75-.09,8.53.11-.8.21-1.6.32-2.39-.04.24-.1.47-.2.69l.91-2.15-.17.31,1.41-1.82c-.13.19-.29.35-.48.47l1.82-1.41-.27.14,2.15-.91-.29.08,2.39-.32c-.2.04-.4.04-.6.02l2.39.32c-.22-.03-.42-.08-.63-.16l2.15.91c-.45-.19-.84-.42-1.24-.7l1.82,1.41c-1.43-1.13-2.61-2.64-3.81-3.99-1.29-1.45-2.54-2.93-3.73-4.46.47.61.94,1.21,1.41,1.82-1.99-2.61-3.74-5.37-5.03-8.4l.91,2.15c-.77-1.89-1.3-3.83-1.59-5.85l.32,2.39c-.24-1.87-.26-3.74-.02-5.61l-.32,2.39c.22-1.47.59-2.87,1.15-4.25-.3.72-.6,1.43-.91,2.15.5-1.13,1.1-2.17,1.84-3.16-.47.61-.94,1.21-1.41,1.82,1.47-1.84,3.35-3.23,5.05-4.84,2.66-2.52,4.74-5.7,5.7-9.26.82-3.04.88-6.26.66-9.38-.17-2.37-.4-4.7-.1-7.07-.11.8-.21,1.6-.32,2.39.18-1.22.47-2.4.95-3.55-.3.72-.6,1.43-.91,2.15.31-.68.68-1.31,1.13-1.91-.47.61-.94,1.21-1.41,1.82.34-.41.69-.77,1.1-1.1l-1.82,1.41c.43-.33.88-.59,1.36-.82l-10.91-1.41c.26.25.5.49.73.77-.47-.61-.94-1.21-1.41-1.82.35.47.64.96.89,1.49l-.91-2.15c.42,1.01.66,2.05.81,3.13-.11-.8-.21-1.6-.32-2.39.44,3.7.27,7.51.34,11.23.07,4.21.15,8.42.22,12.63.15,8.34.3,16.68.44,25.02.08,4.5,3.36,8.24,7.8,8.84s8.78-2.08,9.87-6.45c4.16-16.65,5.98-34.01,5.18-51.16-.22-4.67-.64-9.32-1.24-13.96-.32-2.48-.79-4.52-2.64-6.36-1.56-1.56-4.12-2.74-6.36-2.64-4.92.22-8.95,3.95-9,9-.26,25.45-.51,50.94,1.16,76.36.47,7.15,1.57,14.43.69,21.59.11-.8.21-1.6.32-2.39-1.04,7.53-4.37,14.59-4.39,22.3-.02,8.13,3.3,15.99,10.27,20.48,3.96,2.56,10.11.94,12.31-3.23,2.36-4.47,1-9.59-3.23-12.31-.29-.19-.57-.38-.84-.58l1.82,1.41c-.71-.56-1.33-1.18-1.9-1.89.47.61.94,1.21,1.41,1.82-.69-.9-1.24-1.86-1.69-2.9.3.72.6,1.43.91,2.15-.58-1.4-.95-2.85-1.17-4.35l.32,2.39c-.27-2.02-.24-4.04.02-6.07l-.32,2.39c.51-3.55,1.56-6.97,2.49-10.43,1.11-4.14,1.85-8.4,1.98-12.69.12-3.76-.23-7.52-.53-11.26-.3-3.79-.55-7.58-.77-11.38-.85-15.19-1.06-30.4-1.04-45.61.01-8.6.1-17.2.19-25.8h-18c1.9,14.62,1.88,29.45-.05,44.06l.32-2.39c-.85,6.28-2.03,12.51-3.57,18.66l17.68,2.39c-.18-9.99-.36-19.98-.53-29.97-.09-4.95-.18-9.91-.26-14.86-.1-5.71-.86-11.67-5.28-15.81-1.47-1.37-3.17-2.21-5.17-2.48-2.11-.28-3.8.15-5.74,1.07-2.65,1.26-4.96,3.67-6.39,6.2-1.62,2.86-2.23,5.74-2.61,8.95-.5,4.16.57,8.31.07,12.47l.32-2.39c-.14.94-.36,1.84-.69,2.74l.91-2.15c-.36.85-.8,1.61-1.35,2.35.47-.61.94-1.21,1.41-1.82-1.07,1.34-2.35,2.44-3.63,3.56-1.8,1.57-3.29,3.24-4.7,5.19-2.72,3.78-3.87,8.55-4.15,13.13-.24,4.06.48,8.41,2,12.18.96,2.38,1.99,4.7,3.33,6.89s2.91,4.19,4.49,6.19c2.65,3.37,5.55,7.04,9.12,9.46s8.36,2.72,11.96.51c2.34-1.43,4.05-3.71,4.84-6.33.45-1.5.53-3.12.54-4.68.08-8.22-.15-16.43-.18-24.64-.03-9.13.2-18.29,1.4-27.35l-.32,2.39c1.08-7.93,2.94-15.74,5.98-23.15.82-2.01.14-5.15-.91-6.94-1.09-1.87-3.23-3.65-5.38-4.14-2.3-.52-4.89-.41-6.94.91l-1.82,1.41c-1.12,1.12-1.89,2.45-2.31,3.97h0Z"/><path class="cls-8" d="M1060.95,863.55c13.36,2.19,26.67,1.82,40.09.47,12.64-1.28,25.23-3.18,37.94-3.6,7.27-.24,14.49.12,21.7,1.08l-2.39-.32c10.83,1.47,21.7,3.78,32.68,3.19,4.5-.24,8.23-3.24,8.84-7.8.55-4.06-2.03-9.11-6.45-9.87-15.78-2.73-31.16-6.84-46.38-11.78-8.27-2.69-16.72-4.49-25.47-3.95-8.75.54-17.3,2.58-25.81,4.57-9.11,2.13-18.22,4.25-27.34,6.38-4.59,1.07-7.74,6.57-6.29,11.07,1.55,4.79,6.15,7.43,11.07,6.29,7.66-1.79,15.32-3.58,22.98-5.36,7.53-1.76,15.06-3.72,22.73-4.76l-2.39.32c4.95-.65,9.93-.84,14.89-.21l-2.39-.32c7.82,1.09,15.24,4.1,22.76,6.38s15.55,4.39,23.43,6.11c4.45.97,8.93,1.85,13.42,2.62.8-5.89,1.6-11.79,2.39-17.68-5.8.31-11.58-.21-17.32-.98l2.39.32c-7.82-1.07-15.61-2.51-23.5-3.08-7.01-.51-14.05-.32-21.05.19-13.92,1.02-27.72,3.31-41.66,4.11-7.91.45-15.85.4-23.71-.64l2.39.32c-.93-.13-1.85-.27-2.78-.42-2.46-.4-4.7-.4-6.94.91-1.87,1.09-3.65,3.23-4.14,5.38-.52,2.3-.41,4.89.91,6.94,1.19,1.85,3.11,3.77,5.38,4.14h0Z"/><path class="cls-8" d="M990.82,841.98c-32.49-2.74-65.1-3.91-97.7-3.48-9.27.12-18.53.37-27.79.75-2.37.1-4.67.94-6.36,2.64-1.56,1.56-2.74,4.12-2.64,6.36.21,4.71,3.96,9.2,9,9,32.58-1.32,65.21-1.07,97.76.78,9.25.52,18.5,1.18,27.73,1.96,2.18.18,4.86-1.14,6.36-2.64s2.74-4.12,2.64-6.36-.87-4.74-2.64-6.36-3.87-2.43-6.36-2.64h0Z"/><path class="cls-8" d="M810.04,842.18c-18.14,0-36.28,0-54.42.01-18.22,0-36.44,0-54.67.01-5.08,0-10.15,0-15.23,0h-7.49c-2.27,0-4.58.11-6.84-.18l2.39.32c-.85-.13-1.65-.33-2.44-.66l2.15.91c-.43-.2-.82-.43-1.2-.71l1.82,1.41c-.28-.23-.53-.47-.77-.74-2.12,5.12-4.24,10.24-6.36,15.36,26.91-1.93,53.93-2.29,80.88-1.05,7.61.35,15.2.83,22.79,1.43,2.19.17,4.86-1.13,6.36-2.64s2.74-4.12,2.64-6.36-.87-4.74-2.64-6.36-3.87-2.44-6.36-2.64c-26.89-2.12-53.91-2.68-80.87-1.64-7.61.29-15.21.72-22.8,1.26-3.66.26-6.76,2.05-8.22,5.53s-.62,7.11,1.86,9.83c4.04,4.43,10.02,4.93,15.62,4.92h14.48c9.65,0,19.3,0,28.96-.01,19.22,0,38.44,0,57.66-.01,10.9,0,21.8,0,32.7,0,4.71,0,9.22-4.14,9-9s-3.95-9-9-9h0Z"/><path class="cls-8" d="M491.96,864.54c17.16-.83,34.33-1.55,51.5-2.15,17.25-.6,34.51-1.09,51.77-1.46,9.71-.21,19.42-.38,29.13-.51,4.49-.06,8.24-3.38,8.84-7.8.61-4.52-2.14-8.48-6.45-9.87-16.12-5.21-32.95-8.26-49.85-9.33s-33.95.11-50.62,3.2c-9.09,1.68-18.06,4.03-26.82,7-2.23.75-4.17,2.07-5.38,4.14-1.13,1.93-1.61,4.77-.91,6.94,1.43,4.42,6.3,7.9,11.07,6.29,11.78-3.99,23.92-6.83,36.25-8.5l-2.39.32c17.44-2.33,35.15-2.34,52.6,0l-2.39-.32c11.42,1.55,22.69,4.1,33.66,7.65l2.39-17.68c-17.18.23-34.36.58-51.53,1.05-17.26.47-34.51,1.06-51.76,1.76-9.7.4-19.4.83-29.1,1.3-2.38.12-4.65.93-6.36,2.64-1.56,1.56-2.74,4.12-2.64,6.36.21,4.68,3.96,9.24,9,9h0Z"/><path class="cls-8" d="M305.13,866.12c3.42-.5,6.83-.98,10.25-1.44l-2.39.32c28.19-3.77,56.56-6.09,84.99-6.93,8.05-.24,16.1-.35,24.16-.35v-18c-18.39.79-36.89,1.55-55.19-.87l2.39.32c-4.49-.61-8.92-1.45-13.35-2.41-4.87-1.05-9.81-2-14.8-2.16-9.52-.31-19,2.08-27.43,6.45-4.19,2.17-5.77,8.37-3.23,12.31,2.75,4.27,7.84,5.55,12.31,3.23,1.18-.61,2.39-1.18,3.61-1.7l-2.15.91c3.71-1.52,7.56-2.57,11.53-3.13l-2.39.32c4.17-.55,8.34-.54,12.51,0l-2.39-.32c4.97.7,9.83,2,14.77,2.88,5.55.99,11.16,1.7,16.77,2.17,9.99.85,20.02.88,30.04.62,5.66-.15,11.32-.39,16.98-.63,2.37-.1,4.66-.93,6.36-2.64,1.56-1.56,2.74-4.12,2.64-6.36-.22-4.88-3.95-9-9-9-31.23,0-62.46,1.77-93.49,5.33-9.45,1.08-18.89,2.33-28.31,3.71-2.07.3-4.37,2.42-5.38,4.14-1.13,1.93-1.61,4.77-.91,6.94s2.05,4.28,4.14,5.38l2.15.91c1.6.43,3.19.43,4.79,0h0Z"/><path class="cls-8" d="M56.01,645.26c2.72,10.08,4.78,20.33,6.18,30.68l-.32-2.39c.76,5.73,1.32,11.49,1.67,17.26.17,2.81.29,5.61.36,8.42s.27,5.61,0,8.36l.32-2.39c-.07.45-.16.88-.32,1.31l.91-2.15c-.08.2-.19.39-.31.57l1.41-1.82c-.13.18-.28.34-.45.48l1.82-1.41c-.14.11-.29.2-.46.25l2.15-.91-.26.06,2.39-.32c-.18.03-.36.03-.54.01l2.39.32c-.18-.02-.35-.06-.52-.12l2.15.91c-.16-.06-.32-.14-.46-.24l1.82,1.41c-.13-.09-.25-.21-.34-.34l1.41,1.82-.11-.2.91,2.15-.06-.22.32,2.39v-.24c-.11.8-.22,1.6-.33,2.39l.05-.25c.52-2.35.33-4.82-.91-6.94-1.09-1.87-3.23-3.65-5.38-4.14-4.55-1.04-9.99,1.37-11.07,6.29-.79,3.58,0,6.91,2.44,9.66,1.88,2.12,4.88,3.29,7.69,3.35,5.27.1,9.92-3.82,10.97-8.96.63-3.09.46-6.28.41-9.41-.05-2.73-.14-5.46-.29-8.19-.6-11.46-2-22.91-4.13-34.19-1.15-6.08-2.54-12.11-4.15-18.08-1.23-4.54-6.46-7.78-11.07-6.29s-7.6,6.2-6.29,11.07h0Z"/><path class="cls-8" d="M59.8,536.47c-.87,8.86-.93,17.79-.16,26.66.44,5.03,1.11,10.05,2,15.03.72,4.01,1.81,7.96,2.36,12l-.32-2.39c.22,1.81.3,3.61.06,5.43l.32-2.39c-.16.99-.42,1.94-.8,2.86l.91-2.15c-.32.7-.69,1.34-1.14,1.96l1.41-1.82c-2.31,2.93-5.1,5.43-5.74,9.32-.44,2.66-.34,4.97.26,7.62.31,1.38.76,2.73.97,4.14l-.32-2.39c.08.76.07,1.5,0,2.26l.32-2.39c-.29,2.02-1.04,3.89-1.83,5.77l.91-2.15c-3.2,7.54-6.9,14.85-11.07,21.9-2.4,4.06-1.05,10.05,3.23,12.31,2.09,1.1,4.62,1.66,6.94.91s3.93-2.14,5.38-4.14c.71-.98,1.43-1.96,2.14-2.95,1.29-1.78,1.47-4.9.91-6.94s-2.19-4.35-4.14-5.38c-2.09-1.1-4.62-1.66-6.94-.91s-3.93,2.14-5.38,4.14c-.71.98-1.43,1.96-2.14,2.95l15.54,9.08c3.45-5.83,6.58-11.83,9.36-18.01.93-2.07,1.82-4.17,2.7-6.26.63-1.51,1.27-3.03,1.59-4.64.62-3.11.62-5.68.01-8.79-.3-1.52-.83-2.99-1.05-4.53l.32,2.39c-.06-.54-.07-1.06-.03-1.61l-.32,2.39c.08-.54.21-1.02.42-1.53l-.91,2.15c.23-.45.49-.85.79-1.25l-1.41,1.82c1.2-1.49,2.5-2.84,3.63-4.39s1.94-3.48,2.49-5.33c1.16-3.94.86-7.87.3-11.85-.39-2.77-1.07-5.48-1.63-8.22-.68-3.3-1.24-6.62-1.69-9.96l.32,2.39c-1.45-10.98-1.64-22.09-.56-33.11.21-2.16-1.16-4.88-2.64-6.36-1.56-1.56-4.12-2.74-6.36-2.64s-4.74.87-6.36,2.64c-1.7,1.85-2.39,3.86-2.64,6.36h0Z"/><path class="cls-8" d="M79.85,565l-1.12-10.63c.05-1.24-.21-2.39-.78-3.47-.36-1.12-.98-2.08-1.86-2.9-.82-.88-1.78-1.5-2.9-1.86-1.07-.56-2.23-.82-3.47-.78-2.33.1-4.74.87-6.36,2.64l-1.41,1.82c-.81,1.4-1.22,2.92-1.23,4.54l1.12,10.63c-.05,1.24.21,2.39.78,3.47.36,1.12.98,2.08,1.86,2.9.82.88,1.78,1.5,2.9,1.86,1.07.56,2.23.82,3.47.78,2.33-.1,4.74-.87,6.36-2.64l1.41-1.82c.81-1.4,1.22-2.92,1.23-4.54h0Z"/><path class="cls-8" d="M59.41,266.11c1.3,13.72-.97,27.38-2.25,41.01-.63,6.74-.99,13.51-.6,20.28s1.41,13.99,2.53,20.92,2.51,14.38,3.5,21.62l-.32-2.39c1.18,8.81,1.81,17.75.64,26.6l.32-2.39c-.6,4.32-1.63,8.55-3.17,12.64l17.68,2.39c1.85-17.56,3.7-35.12,5.55-52.68.31-2.9-1.89-6.5-4.46-7.77-3.62-1.79-7.07-2.24-11.03-1.56-3.13.54-5.78,2.24-8.22,4.17-4.89,3.87-6.82,10.06-7.28,16.04-.37,4.86.51,9.84,1.01,14.66.55,5.3,1.1,10.61,1.64,15.91,2.19,21.2,4.49,42.39,6.56,63.61,1.09,11.2,2.03,22.61.55,33.82l.32-2.39c-.67,4.84-1.83,9.58-3.71,14.09l.91-2.15c-.23.54-.47,1.08-.72,1.62l3.23-3.23-.27.13,2.15-.91c-.17.07-.35.12-.54.16l2.39-.32c-.28.03-.5.04-.78,0l2.39.32c-.17-.03-.34-.07-.5-.13l2.15.91c-.34-.15-.63-.33-.93-.55l1.82,1.41c-.3-.27-.57-.55-.82-.86l1.41,1.82c-.39-.54-.7-1.1-.98-1.7l.91,2.15c-.35-.84-.59-1.69-.73-2.59l.32,2.39c-.35-3.04-.11-6.21.27-9.23l-.32,2.39c.56-4.14,1.65-8.17,3.24-12.03l-.91,2.15c1.12-2.65,2.46-5.19,4.03-7.6,2.57-3.95.93-10.12-3.23-12.31-4.49-2.37-9.57-.99-12.31,3.23-3.53,5.42-6.14,11.64-7.51,17.96-.76,3.51-1.24,7.13-1.36,10.72-.11,3.23-.05,6.67,1.15,9.71,1.91,4.81,5.26,8.97,10.7,9.7,3.25.44,6.76-.38,9.15-2.77,1.99-1.99,2.9-5.07,3.85-7.65,2.31-6.3,3.31-13.08,3.75-19.75.87-12.97-.81-26.01-2.14-38.89-1.4-13.59-2.81-27.18-4.21-40.78-.79-7.62-1.58-15.25-2.36-22.87-.39-3.81-.79-7.62-1.18-11.44-.34-3.32-.68-6.64-.25-9.97l-.32,2.39c.21-1.41.56-2.76,1.1-4.08l-.91,2.15c.39-.87.85-1.66,1.44-2.41l-1.41,1.82c.59-.72,1.24-1.35,1.97-1.92l-1.82,1.41c.65-.47,1.31-.87,2.04-1.21l-2.15.91c.72-.3,1.44-.52,2.21-.65l-2.39.32c.65-.08,1.27-.09,1.92-.03l-2.39-.32c.54.08,1.05.21,1.56.4l-2.15-.91c.21.08.41.18.6.28l-4.46-7.77c-1.85,17.56-3.7,35.12-5.55,52.68-.22,2.06,1.14,4.99,2.64,6.36s3.16,2.21,5.17,2.48,4.06.01,5.74-1.07c2.07-1.33,3.27-3.08,4.14-5.38,6.94-18.47,3.63-38.52.41-57.37-.89-5.21-1.78-10.41-2.49-15.65l.32,2.39c-1.23-9.21-1.55-18.35-.84-27.61s2.18-19.06,2.75-28.63c.32-5.4.34-10.81-.17-16.2-.23-2.44-.85-4.58-2.64-6.36-1.56-1.56-4.12-2.74-6.36-2.64s-4.74.87-6.36,2.64c-1.53,1.66-2.86,4.02-2.64,6.36h0Z"/></g><g id="Lag_10"><path class="cls-9" d="M1379.3,811.38c-30.1,0-63.48-13.18-93.58-13.18s-60.19,14-90.29,14-60.19-14-90.29-14c-30.1,0-60.19,14-90.29,14-30.1,0-60.19-14-90.29-14s-60.19,14-90.29,14-60.19-14-90.29-14-60.19,14-90.29,14-60.19-14-90.29-14-60.19,14-90.29,14c-30.1,0-60.19-14-90.29-14-30.1,0-60.19,14-90.29,14s-60.19-14-90.29-14-63.48,13.18-93.58,13.18c0-16.03,10.29-38.23,10.29-54.26s-14-32.06-14-48.08,14-32.06,14-48.08-14-32.06-14-48.08,14-32.06,14-48.08-14-32.06-14-48.08,14-32.06,14-48.08-14-32.06-14-48.08,14-32.06,14-48.08-14-32.06-14-48.08,14-32.06,14-48.08-14-32.06-14-48.08,14-32.06,14-48.08-10.29-38.23-10.29-54.26c30.1,0,63.48,13.18,93.58,13.18s60.19-14,90.29-14,60.19,14,90.29,14,60.19-14,90.29-14,60.19,14,90.29,14,60.19-14,90.29-14,60.19,14,90.29,14,60.19-14,90.29-14,60.19,14,90.29,14,60.19-14,90.29-14,60.19,14,90.29,14,60.19-14,90.29-14,60.19,14,90.29,14,63.48-13.18,93.58-13.18c0,16.03-10.29,38.23-10.29,54.26,0,16.03,14,32.06,14,48.08,0,16.03-14,32.06-14,48.08s14,32.06,14,48.08c0,16.03-14,32.06-14,48.08,0,16.03,14,32.06,14,48.08,0,16.03-14,32.06-14,48.08s14,32.06,14,48.08c0,16.03-14,32.06-14,48.08,0,16.03,14,32.06,14,48.08,0,16.03-14,32.06-14,48.08s14,32.06,14,48.08c0,16.03-14,32.06-14,48.08,0,16.03,10.29,38.23,10.29,54.26Z"/></g><g id="Lag_8"><path class="cls-9" d="M1416.9,843.62c-31.74,0-66.88-13.12-98.62-13.12s-63.48,14-95.21,14-63.48-14-95.21-14-63.48,14-95.21,14-63.48-14-95.21-14-63.48,14-95.21,14-63.48-14-95.21-14-63.48,14-95.21,14-63.48-14-95.21-14-63.48,14-95.21,14-63.48-14-95.21-14-63.48,14-95.21,14-63.48-14-95.21-14-66.88,13.12-98.62,13.12c0-17.64,10.4-41.4,10.4-59.05s-14-35.29-14-52.93,14-35.29,14-52.93-14-35.29-14-52.93,14-35.29,14-52.93-14-35.29-14-52.93,14-35.29,14-52.93-14-35.29-14-52.93,14-35.29,14-52.93-14-35.29-14-52.93,14-35.29,14-52.93-14-35.29-14-52.93,14-35.29,14-52.93-10.4-41.4-10.4-59.05c31.74,0,66.88,13.12,98.62,13.12s63.48-14,95.21-14,63.48,14,95.21,14,63.48-14,95.21-14,63.48,14,95.21,14,63.48-14,95.21-14,63.48,14,95.21,14,63.48-14,95.21-14,63.48,14,95.21,14,63.48-14,95.21-14,63.48,14,95.21,14,63.48-14,95.21-14,63.48,14,95.21,14,66.88-13.12,98.62-13.12c0,17.64-10.4,41.4-10.4,59.05s14,35.29,14,52.93-14,35.29-14,52.93,14,35.29,14,52.93-14,35.29-14,52.93,14,35.29,14,52.93-14,35.29-14,52.93,14,35.29,14,52.93-14,35.29-14,52.93,14,35.29,14,52.93-14,35.29-14,52.93,14,35.29,14,52.93-14,35.29-14,52.93,10.4,41.4,10.4,59.05Z"/></g><g id="Lag_2"><circle class="cls-2" cx="305" cy="803" r="11"/><circle class="cls-1" cx="260" cy="831" r="20"/><circle class="cls-4" cx="304.5" cy="830.5" r="13.5"/><circle class="cls-1" cx="144" cy="653" r="20"/><circle class="cls-4" cx="208.5" cy="690.5" r="13.5"/><circle class="cls-2" cx="117" cy="675" r="11"/><circle class="cls-1" cx="240" cy="759" r="20"/><circle class="cls-2" cx="220" cy="721" r="11"/><circle class="cls-4" cx="255.5" cy="703.5" r="13.5"/><circle class="cls-4" cx="143.5" cy="717.5" r="13.5"/><circle class="cls-1" cx="75" cy="673" r="20"/><circle class="cls-4" cx="101.5" cy="635.5" r="13.5"/><circle class="cls-2" cx="275" cy="741" r="11"/><circle class="cls-2" cx="176" cy="693" r="11"/><circle class="cls-4" cx="278.5" cy="784.5" r="13.5"/><circle class="cls-1" cx="178" cy="741" r="20"/><g id="Lag_3"><circle class="cls-7" cx="132.5" cy="830.5" r="100.5"/><circle class="cls-6" cx="74.5" cy="758.5" r="74.5"/><circle class="cls-3" cx="207" cy="830" r="49"/></g></g><g id="Lag_5"><circle class="cls-2" cx="1183" cy="800" r="11"/><circle class="cls-1" cx="1228" cy="828" r="20"/><circle class="cls-4" cx="1183.5" cy="827.5" r="13.5"/><circle class="cls-1" cx="1344" cy="650" r="20"/><circle class="cls-4" cx="1279.5" cy="687.5" r="13.5"/><circle class="cls-2" cx="1371" cy="672" r="11"/><circle class="cls-1" cx="1248" cy="756" r="20"/><circle class="cls-2" cx="1268" cy="718" r="11"/><circle class="cls-4" cx="1232.5" cy="700.5" r="13.5"/><circle class="cls-4" cx="1344.5" cy="714.5" r="13.5"/><circle class="cls-1" cx="1413" cy="670" r="20"/><circle class="cls-4" cx="1386.5" cy="632.5" r="13.5"/><circle class="cls-2" cx="1213" cy="738" r="11"/><circle class="cls-2" cx="1312" cy="690" r="11"/><circle class="cls-4" cx="1209.5" cy="781.5" r="13.5"/><circle class="cls-1" cx="1310" cy="738" r="20"/><circle class="cls-7" cx="1355.5" cy="827.5" r="100.5"/><circle class="cls-6" cx="1413.5" cy="755.5" r="74.5"/><circle class="cls-3" cx="1281" cy="827" r="49"/></g><g id="Lag_6"><circle class="cls-2" cx="1184" cy="128" r="11"/><circle class="cls-1" cx="1229" cy="100" r="20"/><circle class="cls-4" cx="1184.5" cy="100.5" r="13.5"/><circle class="cls-1" cx="1345" cy="278" r="20"/><circle class="cls-4" cx="1280.5" cy="240.5" r="13.5"/><circle class="cls-2" cx="1372" cy="256" r="11"/><circle class="cls-1" cx="1249" cy="172" r="20"/><circle class="cls-2" cx="1269" cy="210" r="11"/><circle class="cls-4" cx="1233.5" cy="227.5" r="13.5"/><circle class="cls-4" cx="1345.5" cy="213.5" r="13.5"/><circle class="cls-1" cx="1414" cy="258" r="20"/><circle class="cls-5" cx="1387.5" cy="295.5" r="13.5"/><circle class="cls-2" cx="1214" cy="190" r="11"/><circle class="cls-2" cx="1313" cy="238" r="11"/><circle class="cls-4" cx="1210.5" cy="146.5" r="13.5"/><circle class="cls-1" cx="1311" cy="190" r="20"/><circle class="cls-7" cx="1356.5" cy="100.5" r="100.5"/><circle class="cls-6" cx="1414.5" cy="172.5" r="74.5"/><circle class="cls-3" cx="1282" cy="101" r="49"/></g><g id="Lag_7"><circle class="cls-2" cx="311" cy="131" r="11"/><circle class="cls-1" cx="266" cy="103" r="20"/><circle class="cls-4" cx="310.5" cy="103.5" r="13.5"/><circle class="cls-1" cx="150" cy="281" r="20"/><circle class="cls-4" cx="214.5" cy="243.5" r="13.5"/><circle class="cls-2" cx="123" cy="259" r="11"/><circle class="cls-1" cx="246" cy="175" r="20"/><circle class="cls-2" cx="226" cy="213" r="11"/><circle class="cls-4" cx="261.5" cy="230.5" r="13.5"/><circle class="cls-4" cx="149.5" cy="216.5" r="13.5"/><circle class="cls-1" cx="81" cy="261" r="20"/><circle class="cls-4" cx="107.5" cy="298.5" r="13.5"/><circle class="cls-2" cx="281" cy="193" r="11"/><circle class="cls-2" cx="182" cy="241" r="11"/><circle class="cls-4" cx="284.5" cy="149.5" r="13.5"/><circle class="cls-1" cx="184" cy="193" r="20"/><circle class="cls-7" cx="138.5" cy="103.5" r="100.5"/><circle class="cls-6" cx="80.5" cy="175.5" r="74.5"/><circle class="cls-3" cx="213" cy="104" r="49"/></g></svg>